<?xml version="1.0" encoding="utf-8"?>
<svg viewBox="362.815 33.517 299.852 376.113" xmlns="http://www.w3.org/2000/svg">
  <defs>
    <clipPath clipPathUnits="userSpaceOnUse" id="clipPath16">
      <path d="M 0,360 H 720 V 0 H 0 Z" id="path14"/>
    </clipPath>
  </defs>
  <g id="g8" transform="matrix(1.333333, 0, 0, -1.333333, 0, 480)">
    <g id="g10">
      <g id="g12" clip-path="url(#clipPath16)">
        <g id="g18" transform="translate(497,70.3701)">
          <path d="m 0,0 c 0,-9.715 -6.163,-17.593 -13.767,-17.593 h -197.356 c -7.603,0 -13.766,7.878 -13.766,17.593 v 246.9 c 0,9.716 6.163,17.592 13.766,17.592 H -13.767 C -6.163,264.492 0,256.616 0,246.9 Z" style="fill:#414142;fill-opacity:1;fill-rule:nonzero;stroke:none" id="path20"/>
        </g>
        <g id="g22" transform="translate(457.7461,244.5151)">
          <path d="m 0,0 h 16.16 l -28.666,24.354 v 21.179 h 1.509 v 4.498 h -19.637 v -4.498 h 1.543 V 38.441 L -46.866,53.543 -110.176,0 h 16.444 v -59.726 h -8.622 V -68.39 H 8.572 v 8.664 H 0 Z" style="fill:none;stroke:#fbb03f;stroke-width:5;stroke-linecap:butt;stroke-linejoin:miter;stroke-miterlimit:10;stroke-dasharray:none;stroke-opacity:1" id="path24"/>
        </g>
        <g id="g26" transform="translate(427.457,255.2368)">
          <path d="m 0,0 h 18.811 l -33.369,28.349 v 24.652 h 1.756 v 5.236 h -22.857 v -5.236 h 1.796 V 44.747 L -54.554,62.326 -128.248,0 h 19.141 v -69.522 h -10.035 V -79.608 H 9.978 v 10.086 H 0 Z" style="fill:#414142;fill-opacity:1;fill-rule:nonzero;stroke:none" id="path28"/>
        </g>
        <g id="g30" transform="translate(427.457,255.2368)">
          <path d="m 0,0 h 18.811 l -33.369,28.349 v 24.652 h 1.756 v 5.236 h -22.857 v -5.236 h 1.796 V 44.747 L -54.554,62.326 -128.248,0 h 19.141 v -69.522 h -10.035 V -79.608 H 9.978 v 10.086 H 0 Z" style="fill:none;stroke:#fbb03f;stroke-width:4;stroke-linecap:butt;stroke-linejoin:miter;stroke-miterlimit:10;stroke-dasharray:none;stroke-opacity:1" id="path32"/>
        </g>
        <path d="m 380.238,197.492 h -53.476 v 3.226 h 53.476 z" style="fill:#197a92;fill-opacity:1;fill-rule:nonzero;stroke:none" id="path34"/>
        <g id="g36" transform="translate(399.501,201.2568)">
          <path d="m 0,0 c -8.188,0 -14.825,6.638 -14.825,14.826 0,8.187 6.637,14.824 14.825,14.824 8.188,0 14.825,-6.637 14.825,-14.824 C 14.825,6.638 8.188,0 0,0 m 0,34.039 c -10.611,0 -19.213,-8.602 -19.213,-19.213 0,-10.612 8.602,-19.214 19.213,-19.214 10.611,0 19.214,8.602 19.214,19.214 0,10.611 -8.603,19.213 -19.214,19.213" style="fill:#fbb03f;fill-opacity:1;fill-rule:nonzero;stroke:none" id="path38"/>
        </g>
        <g id="g40" transform="translate(399.0752,213.4463)">
          <path d="m 0,0 c -0.187,0.136 -0.375,0.267 -0.567,0.396 v -8.673 c 0.094,-0.012 0.196,-0.018 0.296,-0.028 0.089,-0.008 0.177,-0.021 0.271,-0.026 v 1.81 c 0.197,-0.008 0.402,-0.013 0.614,-0.013 0.173,0 0.344,0.005 0.512,0.013 v 0.836 C 0.759,-5.809 0.377,-5.871 0,-5.882 Z m -2.829,-5.105 c -0.405,0.296 -0.748,0.685 -1.032,1.173 -0.713,1.233 -1.123,2.835 -1.228,4.804 h -0.572 c 0,-3.551 -0.037,-5.958 -0.11,-7.224 h 0.572 c 0.056,0.389 0.126,0.669 0.207,0.839 0.081,0.171 0.197,0.256 0.353,0.256 0.186,0 0.467,-0.118 0.839,-0.352 0.061,-0.03 0.126,-0.058 0.189,-0.087 0.529,-0.242 1.091,-0.439 1.691,-0.588 0.319,-0.081 0.681,-0.14 1.081,-0.182 v 0.646 c -0.116,0.022 -0.227,0.049 -0.336,0.078 -0.633,0.082 -1.183,0.295 -1.654,0.637 M 6.873,0.654 C 6.528,1.303 6.085,1.867 5.54,2.35 4.996,2.833 4.268,3.394 3.351,4.036 3.063,4.235 2.795,4.424 2.544,4.6 2.349,4.718 2.156,4.839 1.965,4.96 v 6.162 C 2.075,11.097 2.181,11.067 2.283,11.035 2.796,10.917 3.267,10.676 3.692,10.312 3.737,10.273 3.78,10.23 3.822,10.191 4.392,9.665 4.851,9.001 5.195,8.195 5.563,7.326 5.78,6.418 5.845,5.47 h 0.571 c 0,2.863 0.041,4.891 0.122,6.083 H 5.966 C 5.918,11.17 5.853,10.893 5.772,10.718 5.691,10.543 5.573,10.458 5.418,10.458 c -0.105,0 -0.215,0.025 -0.327,0.079 -0.082,0.037 -0.198,0.096 -0.344,0.175 -0.057,0.028 -0.114,0.061 -0.18,0.098 -0.55,0.309 -1.124,0.551 -1.713,0.73 -0.26,0.078 -0.559,0.138 -0.889,0.181 V 13.55 C 1.876,13.56 1.782,13.567 1.692,13.575 1.596,13.586 1.497,13.598 1.396,13.604 V 5.341 C 0.91,5.683 0.439,6.05 0,6.465 v 4.677 c 0.36,0.084 0.745,0.111 1.126,0.093 v 0.558 C 0.935,11.802 0.737,11.807 0.528,11.807 0.351,11.807 0.174,11.8 0,11.793 v 1.811 c -0.094,-0.006 -0.182,-0.018 -0.271,-0.026 -0.1,-0.009 -0.202,-0.016 -0.296,-0.028 V 7.041 c -0.155,0.169 -0.301,0.345 -0.443,0.528 -0.54,0.702 -0.862,1.602 -0.583,2.355 0.112,0.305 0.32,0.585 0.655,0.816 0.03,0.026 0.066,0.044 0.099,0.065 v 0.91 C -1.44,11.631 -2.01,11.493 -2.547,11.297 -2.892,11.171 -3.209,11.021 -3.499,10.846 -4.006,10.543 -4.435,10.169 -4.792,9.721 -5.355,9.01 -5.638,8.138 -5.638,7.1 -5.638,6.241 -5.444,5.481 -5.06,4.819 -4.675,4.158 -4.187,3.581 -3.599,3.086 -3.029,2.604 -2.259,2.04 -1.292,1.39 0.031,0.578 1.268,-0.336 2.263,-1.623 2.923,-2.475 3.277,-3.617 2.65,-4.574 2.501,-4.805 2.291,-5.028 2.016,-5.231 1.999,-5.242 1.981,-5.253 1.965,-5.264 v 3.474 c -0.184,0.214 -0.372,0.417 -0.569,0.611 v -7.152 c 0.101,0.005 0.2,0.019 0.296,0.028 0.09,0.01 0.184,0.015 0.273,0.026 v 1.818 c 0.735,0.086 1.425,0.243 2.067,0.473 0.316,0.112 0.609,0.244 0.884,0.393 0.618,0.333 1.141,0.752 1.562,1.267 0.608,0.741 0.911,1.651 0.911,2.73 0,0.852 -0.172,1.602 -0.516,2.25" style="fill:#ffffff;fill-opacity:1;fill-rule:nonzero;stroke:none" id="path42"/>
        </g>
        <g id="g44" transform="translate(339.9595,248.4922)">
          <path d="M 0,0 H -6.104 C -7.721,0 -9.032,-1.311 -9.032,-2.927 V -3.839 -6.152 -47.774 H 2.927 v 41.622 2.313 0.912 C 2.927,-1.311 1.616,0 0,0" style="fill:#fbb03f;fill-opacity:1;fill-rule:nonzero;stroke:none" id="path46"/>
        </g>
        <g id="g48" transform="translate(355.6792,254.731)">
          <path d="M 0,0 H -6.104 C -7.721,0 -9.031,-1.482 -9.031,-3.31 V -4.34 -6.956 -54.013 H 2.928 v 47.057 2.616 1.03 C 2.928,-1.482 1.617,0 0,0" style="fill:#fbb03f;fill-opacity:1;fill-rule:nonzero;stroke:none" id="path50"/>
        </g>
        <g id="g52" transform="translate(371.1309,264.27)">
          <path d="M 0,0 H -6.104 C -7.721,0 -9.03,-1.743 -9.03,-3.894 V -5.106 -8.184 -63.552 H 2.928 v 55.368 3.078 1.212 C 2.928,-1.743 1.616,0 0,0" style="fill:#197a92;fill-opacity:1;fill-rule:nonzero;stroke:none" id="path54"/>
        </g>
        <g id="g56" transform="translate(386.1777,270.854)">
          <path d="M 0,0 H -8.377 L -4.188,7.255 0,14.511 4.188,7.255 8.378,0 Z" style="fill:#c24542;fill-opacity:1;fill-rule:nonzero;stroke:none" id="path58"/>
        </g>
        <g id="g60" transform="translate(399.2129,252.9839)">
          <path d="M 0,0 H -8.378 L -4.189,7.255 0,14.51 4.188,7.255 8.378,0 Z" style="fill:#c24542;fill-opacity:1;fill-rule:nonzero;stroke:none" id="path62"/>
        </g>
        <path d="m 402.677,254.731 h -6.986 v -17.344 h 6.986 z" style="fill:#c24542;fill-opacity:1;fill-rule:nonzero;stroke:none" id="path64"/>
        <g id="g66" transform="translate(389.6709,235.6514)">
          <path d="M 0,0 V 37.531 H -6.986 V -5.542 C -5.071,-3.248 -2.694,-1.356 0,0" style="fill:#c24542;fill-opacity:1;fill-rule:nonzero;stroke:none" id="path68"/>
        </g>
      </g>
    </g>
    <text transform="matrix(1,0,0,-1,332.7368,125.6279)" style="font-variant: normal; font-weight: normal; font-stretch: normal; font-size: 48px; font-family: &quot;Cooper Black&quot;; writing-mode: lr-tb; fill: rgb(255, 255, 255); fill-opacity: 1; fill-rule: nonzero; stroke: none; white-space: pre;" id="text74"><tspan x="0 36.5616 62.001598 89.217598" y="0" id="tspan70">Real</tspan><tspan x="-45.408001 -8.8464003 16.3008 38.524799 71.068802 97.046402 129.25439" y="57.599998" id="tspan72">Returns</tspan></text>
    <text transform="matrix(1, 0, 0, -1, 0, 0)" style="font-variant: normal; font-weight: bold; font-stretch: normal; font-size: 14px; font-family: &quot;Goudy Old Style&quot;; writing-mode: tb-rl; fill: rgb(255, 255, 255); fill-opacity: 1; fill-rule: nonzero; stroke: none; white-space: pre;" id="text78" x="442.199" y="-233.525"><tspan x="442.199" y="-233.525 -219.525 -205.525" id="tspan76" style="word-spacing: 0px;">ROI</tspan></text>
  </g>
</svg>